<svg width="125" height="40" viewBox="0 0 125 40" fill="none" xmlns="http://www.w3.org/2000/svg">
<g clip-path="url(#clip0_119_42)">
<path d="M101.153 22.0927C101.507 20.5638 102.358 19.0897 103.32 17.8648C103.667 17.4223 104.667 16.7215 104.611 16.1116C104.549 15.42 103.502 14.5961 103.102 14.0493C102.228 12.8584 101.585 11.4567 101.218 10.0281C101.103 9.57843 100.703 8.54471 100.96 8.11364C101.205 7.70015 102.195 7.84384 102.597 7.87175C103.671 7.94515 104.759 8.11054 105.794 8.40825C106.29 8.55091 107.026 8.96233 107.543 8.85689C108.259 8.71114 108.932 7.34765 109.413 6.83182C110.589 5.56861 112.065 4.46976 113.631 3.73788C113.268 2.87989 112.496 2.17076 111.775 1.60221C107.728 -1.592 101.343 0.376208 99.9065 5.38771C99.1756 7.93894 99.8103 10.7931 100.974 13.122C101.312 13.7991 101.721 14.4742 102.173 15.0809C102.383 15.3621 102.814 15.7343 102.814 16.1126C102.814 16.5437 102.258 17.0264 102.016 17.35C101.287 18.3237 100.697 19.4081 100.268 20.5463C100.155 20.846 99.8031 21.5056 100.025 21.8105C100.22 22.0741 100.856 22.0545 101.153 22.0927ZM101.463 8.48061C101.5 10.2597 103.582 9.73142 104.97 10.0767C105.848 10.2958 107.503 11.4216 108.351 11.2283C108.968 11.0877 109.719 9.29519 110.134 8.79073C111.507 7.12643 113.145 6.14543 114.973 5.07862C115.324 6.36458 115.841 7.54819 115.987 8.8941C116.076 9.70144 115.848 11.0329 116.17 11.7586C116.328 12.1131 116.812 12.17 117.14 12.2827C117.963 12.569 118.755 12.9112 119.511 13.3433C120.389 13.8446 121.232 14.4214 121.986 15.0985C122.232 15.3197 122.621 15.8728 123.008 15.7673C123.458 15.6454 123.742 14.8422 123.914 14.4628C124.565 13.0166 124.903 11.3978 124.681 9.82239C124.106 5.73504 120.417 3.15796 116.418 3.4381C113.799 3.62211 111.479 5.46007 109.716 7.24428C109.197 7.77045 108.469 9.33137 107.796 9.55879C107.337 9.71385 106.368 9.10912 105.901 8.98507C104.41 8.59122 102.995 8.48061 101.463 8.48061ZM113.528 6.31496C113.784 8.05679 114.292 9.56293 114.248 11.3678C114.236 11.8495 113.819 12.9711 114.208 13.3422C114.655 13.7671 115.921 13.7991 116.518 13.9997C117.894 14.4628 119.202 15.1854 120.334 16.0919C120.711 16.3948 121.772 17.1174 121.772 17.6498C121.772 18.0798 120.853 18.5481 120.541 18.7569C119.643 19.3554 118.666 19.8599 117.653 20.232C117.204 20.3964 116.406 20.4811 116.066 20.8285C115.65 21.2523 115.936 22.4649 115.87 23.022C115.632 25.044 114.595 26.7631 114.25 28.6941C115.806 29.1913 117.49 29.4011 119.098 29.0135C124.633 27.68 125.953 21.1334 122.98 16.8352C121.92 15.3011 120.067 14.0627 118.376 13.3153C117.723 13.0259 115.961 12.7737 115.595 12.172C115.221 11.557 115.504 10.2193 115.488 9.51434C115.457 8.26767 115.109 6.95897 114.664 5.80223L113.528 6.31496Z" fill="#FFC72F"/>
<path d="M18.6576 23.1235C20.1151 22.4774 21.3939 21.9533 22.4193 20.6488C24.738 17.7026 24.4123 12.6198 21.5448 10.1616C17.6032 6.78133 10.8788 7.96495 6.07715 7.96495H2.46738C1.91227 7.96495 1.29721 7.88638 0.822726 8.23785C-0.112795 8.93251 0.301729 11.0547 0.301729 12.0895V34.7756C0.301729 35.9417 -0.146908 38.31 0.509508 39.3023C1.18763 40.3288 3.95698 39.8285 5.04549 39.8285H13.1923C15.2525 39.8285 17.3055 39.9205 19.2768 39.2041C21.276 38.4774 22.9693 37.1822 23.9885 35.2904C26.5563 30.525 23.9709 24.3412 18.6576 23.1235ZM5.87041 12.3996H11.9549C13.4724 12.3996 15.0302 12.3645 16.3886 13.1573C19.0421 14.7048 18.6462 19.3432 16.0795 20.7625C14.8297 21.453 13.4321 21.3713 12.0583 21.3713H5.87041V12.3996ZM16.9044 34.7477C15.4375 35.4817 13.8549 35.3938 12.264 35.3938H5.87041V25.2881H12.1606C13.8208 25.2881 15.514 25.2478 17.0078 26.1006C20.1431 27.891 20.1978 33.1 16.9044 34.7477ZM32.2025 8.49215C31.79 7.95461 31.1295 7.96495 30.5165 7.96495H26.9077V37.0447C26.9077 37.7445 26.7072 38.8134 27.1807 39.3943C27.5766 39.8791 28.2009 39.8285 28.7633 39.8285H32.4754V10.9555C32.4754 10.2164 32.6821 9.11548 32.2025 8.49215ZM62.1826 19.6171C61.765 17.1134 60.8325 14.6056 59.2406 12.6053C55.7683 8.24095 50.8085 7.96495 45.675 7.96495H38.4565C37.5965 7.96495 36.3271 7.71685 35.7244 8.49111C35.2665 9.08137 35.466 10.1513 35.466 10.8521V39.8285H45.7784C48.0877 39.8285 50.424 39.9877 52.6878 39.4522C61.3763 37.3961 63.4541 27.2367 62.1826 19.6171ZM55.9523 29.6205C55.389 31.3778 54.4369 33.0111 52.8935 34.0779C49.6962 36.2901 44.7157 35.3948 41.0346 35.3948V12.3996C44.7271 12.3996 49.6921 11.5385 52.8935 13.7859C57.3975 16.947 57.4729 24.8695 55.9523 29.6205ZM93.1737 8.28954C93.06 7.69928 91.2003 7.96495 90.7382 7.96495C88.4857 7.96495 85.6792 7.48013 84.2898 9.71814C82.7558 12.1898 82.1345 15.628 81.2166 18.3797C79.421 23.7654 77.4269 29.1057 75.8888 34.5699C75.2851 32.9728 74.9233 31.2465 74.3764 29.6205C72.7927 24.9129 71.2049 20.2053 69.6326 15.4936C69.093 13.8748 68.5245 12.2652 67.9828 10.6464C67.7161 9.84632 67.5425 8.86222 66.8126 8.34122C65.5029 7.40777 62.5888 7.96495 61.0403 7.96495C61.4156 10.4686 62.7522 13.0984 63.5833 15.4925C65.4781 20.9506 67.3946 26.4076 69.2212 31.8885C69.8073 33.6458 70.3914 35.4124 71.0385 37.148C71.4313 38.2024 71.8707 39.1969 73.0026 39.6135C74.4353 40.1396 76.3415 39.8285 77.8497 39.8285C78.3015 39.8285 79.1646 39.9929 79.5502 39.722C79.9968 39.4088 80.1601 38.3637 80.3245 37.8685C80.8537 36.2807 81.445 34.7126 81.9743 33.1248C83.9621 27.1612 86.0089 21.1894 88.1663 15.2848C88.8114 13.5192 89.5546 11.5117 91.0483 10.2795C91.5755 9.84633 93.3391 9.14029 93.1737 8.28954Z" fill="#016B69"/>
<path d="M112.703 26.3195C111.469 25.5483 110.365 24.4215 109.542 23.2255C109.216 22.7521 108.749 21.4527 108.228 21.2273C107.554 20.9358 105.882 21.9861 105.174 22.1794C103.126 22.7397 101.259 22.5608 99.1932 22.2983C99.5023 20.8014 100.156 19.3697 100.946 18.0703C101.271 17.5369 102.134 16.7513 102.136 16.1114C102.139 15.3196 100.965 14.1329 100.579 13.4299C99.7886 11.9889 99.401 10.3898 99.0908 8.78955C98.0116 8.88465 96.9314 9.59999 96.1003 10.2554C92.1328 13.3783 92.231 19.4018 96.4094 22.3272C98.6825 23.9181 101.57 24.1269 104.246 23.6969C105.09 23.5615 106.757 22.6673 107.535 22.8792C107.96 22.995 108.243 23.7145 108.477 24.0515C109.173 25.0604 109.999 25.9339 110.949 26.7061C111.211 26.9201 111.686 27.4245 112.061 27.3615C112.447 27.2963 112.613 26.6306 112.703 26.3195Z" fill="#FFC72F"/>
<path d="M112.29 28.2795L108.829 25.2889L107.332 23.5285L104.454 24.2138L99.4009 24.2572C99.4009 26.5077 99.9891 28.6681 101.597 30.3242C104.897 33.7231 110.309 32.8713 113.072 29.3101C114.38 27.6251 115.002 25.5236 115.252 23.4323C115.336 22.7346 115.009 20.9989 115.447 20.4862C115.873 19.988 117.147 19.8711 117.758 19.6479C119.027 19.1848 120.173 18.4384 121.264 17.6569C121.087 17.2827 120.719 16.7607 120.233 16.8444C119.684 16.9385 119.066 17.5277 118.583 17.8037C117.716 18.2957 116.76 18.6524 115.799 18.9067C115.373 19.0194 114.33 19.0318 114.049 19.3832C113.833 19.652 113.981 20.1368 114.016 20.4407C114.107 21.2078 114.076 22.0409 114.042 22.8121C113.951 24.8382 113.049 26.4663 112.29 28.2795Z" fill="#FFC72F"/>
</g>
<defs>
<clipPath id="clip0_119_42">
<rect width="124.899" height="40" fill="white"/>
</clipPath>
</defs>
</svg>
